<?xml version="1.0" encoding="UTF-8" standalone="no"?>
<svg width="380px" height="75px" viewBox="0 0 380 75" version="1.1" xmlns="http://www.w3.org/2000/svg" xmlns:xlink="http://www.w3.org/1999/xlink">
    <!-- Generator: Sketch 46.2 (44496) - http://www.bohemiancoding.com/sketch -->
    <title>Wordmark_Black</title>
    <desc>Created with Sketch.</desc>
    <defs></defs>
    <g id="Page-1" stroke="none" stroke-width="1" fill="none" fill-rule="evenodd">
        <g id="Wordmark_Black" fill-rule="nonzero" fill="#1C1B1A">
            <path d="M191.928482,66.6288007 C191.928482,67.9487769 191.928482,68.2487715 192.818551,69.0587569 L197.802936,73.9786684 L197.802936,74.1886646 L175.699563,74.1886646 L175.699563,64.7388347 C173.475,70.9670062 167.591489,75.0855802 161.043098,74.99865 C149.679888,74.99865 141.431918,65.998812 141.431918,49.4391101 C141.431918,33.9293893 150.332605,23.5795756 162.823235,23.5795756 C168.359961,23.2271589 173.512213,26.4516048 175.669894,31.6194308 L175.669894,10.7698061 C175.834098,9.80429336 175.443304,8.82804709 174.661149,8.2498515 L169.914116,3.62993466 L169.914116,3.41993844 L191.928482,0.80998542 L191.928482,66.6288007 Z M175.699563,63.6288547 L175.699563,32.5194146 C174.097736,30.5075743 171.667037,29.3561834 169.113054,29.3994708 C163.742973,29.3994708 158.550906,34.3193822 158.550906,48.9291193 C158.550906,62.608873 163.030918,67.4387861 168.608682,67.4387861 C171.436762,67.3802651 174.068954,65.9659878 175.699563,63.6288547 Z M206.584947,74.1886646 L206.584947,32.1894206 C206.726382,31.2515229 206.391912,30.3045749 205.694878,29.6694659 L200.7995,24.5695577 L200.7995,24.3595615 L222.902873,24.3595615 L222.902873,66.9587947 C222.902873,68.278771 222.902873,68.5787656 223.792942,69.388751 L228.658651,74.0086678 L228.658651,74.218664 L206.584947,74.1886646 Z M205.783885,8.999838 C205.783885,4.02936472 209.768858,9.13061129e-16 214.684572,0 C219.600286,-9.13061129e-16 223.585259,4.02936472 223.585259,8.999838 C223.585259,13.9703113 219.600286,17.999676 214.684572,17.999676 C209.768858,17.999676 205.783885,13.9703113 205.783885,8.999838 L205.783885,8.999838 Z M282.537477,66.5388023 C282.537477,67.8587785 282.537477,68.2487715 283.427545,69.0587569 L288.41193,73.9786684 L288.41193,74.1886646 L266.189881,74.1886646 L266.189881,63.4188584 C264.166309,70.2285903 258.001416,74.9189552 250.969706,74.99865 C241.119613,74.99865 235.838538,67.7387807 235.838538,53.999028 C235.838538,47.3691473 235.838538,40.109278 236.046221,31.9494249 C236.208991,31.0360127 235.868084,30.1053085 235.156152,29.5194686 L230.260775,24.5695577 L230.260775,24.3595615 L252.186134,24.3595615 C252.186134,24.6595561 252.186134,50.4290923 252.186134,51.7490685 C252.186134,60.7489065 253.491568,66.7487985 259.069332,66.7487985 C262.064902,66.5594648 264.764362,64.8563275 266.249219,62.21888 L266.249219,32.21942 C266.390654,31.2815223 266.056184,30.3345743 265.359151,29.6994654 L260.434104,24.5695577 L260.434104,24.3595615 L282.537477,24.3595615 L282.537477,66.5388023 Z M357.777951,74.1886646 C357.777951,72.5686937 358.074641,51.9290653 358.074641,47.1891506 C358.074641,38.1893126 356.6802,31.9794244 350.42005,31.9794244 C347.270186,32.0776503 344.353025,33.6804825 342.557776,36.2993466 C343.18562,39.1040425 343.48437,41.9737843 343.447845,44.8491927 C343.447845,51.0890804 343.240162,59.0389373 343.151156,66.9887942 C342.988385,67.9022064 343.329293,68.8329105 344.041224,69.4187504 L349.025609,74.0386673 L349.025609,74.2486635 L326.714553,74.2486635 C326.714553,72.7486905 327.011243,51.9890642 327.011243,47.2491495 C327.011243,38.0993142 325.616802,32.0394233 319.445659,32.0394233 C316.403519,32.1497787 313.628143,33.8245016 312.087758,36.4793434 L312.087758,67.0787926 C312.087758,68.3987688 312.087758,68.6987634 312.977826,69.5087488 L317.843535,74.1286657 L317.843535,74.3386619 L295.769831,74.3386619 L295.769831,32.3394179 C295.911266,31.4015202 295.576796,30.4545722 294.879763,29.8194632 L289.984385,24.5695577 L289.984385,24.3595615 L312.087758,24.3595615 L312.087758,35.0393693 C314.137065,27.9881842 320.668581,23.2514102 327.930981,23.5495761 C335.288882,23.5495761 340.273267,27.6895016 342.379763,35.5493601 C344.719288,28.3004264 351.454059,23.4362879 358.994379,23.5495761 C368.844472,23.5495761 374.422236,30.8994438 374.422236,44.7891938 C374.422236,51.4190744 374.214553,58.9789384 374.125547,66.9287953 C373.952564,67.8696982 374.348964,68.8245831 375.134291,69.3587515 L380,73.9786684 L380,74.1886646 L357.777951,74.1886646 Z M80.1061836,67.6487823 L86.6630231,73.9786684 L86.6630231,74.1886646 L53.4041224,74.1886646 L53.4041224,73.9786684 L60.0796377,67.6487823 C60.7915689,67.0629424 61.1324765,66.1322382 60.9697064,65.218826 L60.9697064,24.7495545 C60.9697064,23.0395853 60.9697064,20.7296269 61.266396,18.7496625 L38.8366646,74.99865 L38.569644,74.99865 L15.3388507,23.2495815 C14.8344785,21.9596047 14.6861337,21.8696063 14.3597751,20.999622 L14.3597751,54.9290113 C14.0816541,57.1998601 14.4630776,59.5034711 15.4575265,61.5588919 L24.803248,73.9786684 L24.803248,74.1886646 L0,74.1886646 L0,73.9786684 L9.34572142,61.5288925 C10.3328267,59.4818103 10.7140269,57.1899651 10.4434728,54.9290113 L10.4434728,17.4296863 C10.5954314,15.5833058 10.0434888,13.7480448 8.90068707,12.2997786 L2.28450968,3.62993466 L2.28450968,3.41993844 L26.0196752,3.41993844 L45.8978763,47.2491495 L63.4025609,3.41993844 L86.6333542,3.41993844 L86.6333542,3.62993466 L80.1061836,10.9798024 C79.3240288,11.5579979 78.9332348,12.5342442 79.0974391,13.499757 L79.0974391,65.218826 C78.9244564,66.1597289 79.3208565,67.1146139 80.1061836,67.6487823 Z M106.125859,47.3691473 L106.125859,47.5791436 C106.125859,60.4189124 112.682698,65.5788196 120.366958,65.5788196 C126.78345,65.8003157 132.721728,62.1623382 135.498126,56.3089864 L135.705809,56.3089864 C133.035603,68.998758 125.262336,74.99865 113.632105,74.99865 C101.082136,74.99865 89.2442224,67.3487877 89.2442224,49.6191068 C89.2442224,30.9894422 101.111805,23.5495761 114.225484,23.5495761 C124.787633,23.5495761 136.032167,28.5894854 136.032167,44.7891938 C136.032167,45.0891884 136.032167,46.1691689 136.032167,47.3691473 L106.125859,47.3691473 Z M106.125859,44.7891938 L120.752655,44.7891938 C120.752655,43.4692175 120.752655,42.5692337 120.752655,42.1792408 C120.752655,28.9794784 118.05278,25.4695415 113.988132,25.4695415 C109.063086,25.4695415 106.066521,30.719447 106.066521,44.7891938 L106.125859,44.7891938 Z" id="Shape"></path>
        </g>
    </g>
</svg>